<svg width="16" height="16" viewBox="0 0 16 16" fill="none" xmlns="http://www.w3.org/2000/svg">
    <path fill-rule="evenodd" clip-rule="evenodd" d="M1.919 1.919a2 2 0 0 1 3.3.748h1.448a2 2 0 0 1 2 2V11a.667.667 0 0 0 .666.667h3.057l-.528-.529a.667.667 0 0 1 .943-.943l1.666 1.667c.26.26.26.682 0 .943l-1.666 1.666a.667.667 0 1 1-.943-.943L12.39 13H9.333a2 2 0 0 1-2-2V4.667A.667.667 0 0 0 6.667 4H5.219a2 2 0 1 1-3.3-2.081zm1.886.943a.667.667 0 1 1-.943.943.667.667 0 0 1 .943-.943z" fill="#08979C"/>
</svg>
