<svg width="82" height="82" viewBox="0 0 82 82" fill="none" xmlns="http://www.w3.org/2000/svg">
<path d="M5.48018 55.3707C2.08659 50.4641 0.163829 44.6397 0.0768133 38.6244C-0.12248 24.7216 7.25417 11.3999 19.8461 4.31515C37.5411 -5.64108 59.9489 -0.136662 68.8469 12.2672C83.4683 32.6513 63.1909 73.9049 37.7993 75.154C26.0439 75.7351 14.0077 67.7016 5.48018 55.3707Z" fill="#EBEFF4"/>
<path d="M61.6612 76.0153C61.3721 76.0153 61.0801 75.9647 60.7994 75.8637L21.9401 61.8458C21.3029 61.6157 20.7949 61.1525 20.5058 60.5378C20.2166 59.9259 20.1858 59.2354 20.4159 58.5982L37.7797 10.4591C38.2541 9.14268 39.7109 8.46059 41.0245 8.93497L79.8839 22.9528C80.521 23.183 81.0291 23.6462 81.3182 24.2609C81.6073 24.8728 81.6382 25.5633 81.408 26.2005L64.0415 74.3395C63.8113 74.9767 63.3481 75.4848 62.7334 75.7739C62.3938 75.9367 62.0289 76.0153 61.6612 76.0153ZM40.1684 9.13987C39.273 9.13987 38.4337 9.69284 38.1109 10.5826L20.7472 58.7217C20.5479 59.2691 20.5759 59.8641 20.8258 60.3918C21.0728 60.9195 21.5135 61.3209 22.0608 61.5174L60.9173 75.5325C61.4647 75.7318 62.0598 75.7037 62.5875 75.4539C63.1152 75.2069 63.5166 74.7662 63.7131 74.2188L81.0796 26.0798C81.2789 25.5324 81.2508 24.9373 81.001 24.4096C80.754 23.8819 80.3133 23.4805 79.766 23.2841L40.9066 9.26899C40.6624 9.18198 40.4126 9.13987 40.1684 9.13987Z" fill="#434343"/>
<path d="M28.2698 66.8711C27.0572 65.4817 25.5246 63.514 23.3773 64.3898C22.538 64.7322 21.9177 65.4789 21.6987 66.3434C21.4517 67.309 21.811 68.2409 22.2854 69.0521C23.4867 71.1124 25.2214 72.8527 26.7737 74.6464C27.1723 75.1067 27.5708 75.5671 27.9694 76.0274C28.1884 76.28 28.6094 75.946 28.3905 75.6934C27.0207 74.1131 25.62 72.558 24.2923 70.944C23.6327 70.144 22.9759 69.302 22.5183 68.3644C22.1282 67.5645 21.9738 66.669 22.4566 65.8438C22.9169 65.055 23.8236 64.6059 24.7162 64.7126C25.6453 64.8249 26.3161 65.5294 26.914 66.1694C28.3512 67.7076 29.6564 69.3609 30.8971 71.0563C32.1349 72.7489 33.3082 74.4836 34.4899 76.2155C35.0261 77.0042 35.6773 77.779 36.1011 78.6379C36.2555 78.9494 36.3818 79.3144 36.2555 79.668C36.0899 80.1256 35.5229 80.5382 35.0738 80.6841C34.2654 80.9452 33.4879 80.3838 32.9377 79.8785C32.2023 79.2077 31.5539 78.433 30.9251 77.6667C29.6115 76.0611 28.3736 74.3966 27.1077 72.7545C26.5126 71.9826 25.6312 71.0731 25.6846 70.0121C25.7042 69.5911 25.8923 69.1279 26.2403 68.8585C26.6726 68.5216 27.1891 68.6479 27.6073 68.9034C28.5673 69.4872 29.2438 70.4809 29.8613 71.3875C30.5209 72.3559 31.1721 73.3299 31.829 74.3011C32.017 74.579 32.4353 74.2422 32.25 73.9671C31.582 72.9763 30.9167 71.9826 30.243 70.9974C29.6255 70.0935 28.9462 69.156 28.0228 68.5357C27.3266 68.0697 26.434 67.9266 25.7716 68.5862C25.1569 69.1981 25.0418 70.1019 25.286 70.8795C25.606 71.89 26.406 72.7264 27.0403 73.5489C27.7757 74.5004 28.5112 75.4548 29.2466 76.4064C29.9848 77.3635 30.7315 78.3179 31.5455 79.2133C32.1714 79.901 32.8339 80.6533 33.6984 81.0547C34.5292 81.442 35.3882 81.2708 36.1039 80.6757C36.8478 80.0554 37.0106 79.261 36.5952 78.4274C36.1152 77.4674 35.3966 76.5944 34.7931 75.7102C34.1082 74.7053 33.4233 73.7005 32.7272 72.7012C31.3265 70.6942 29.8781 68.7181 28.2698 66.8711Z" fill="#434343"/>
<path d="M63.6316 72.5684L23.3884 63.2353C22.1197 62.9406 21.3281 61.6718 21.6229 60.4031L33.1819 10.5518C33.4766 9.28303 34.7453 8.49147 36.0141 8.7862L76.2572 18.1193C77.526 18.414 78.3175 19.6828 78.0228 20.9515L66.4638 70.8028C66.1691 72.0716 64.9003 72.8631 63.6316 72.5684Z" fill="#FAAD14"/>
<path d="M54.8375 20.6791L37.4512 16.6484C36.9684 16.5361 36.6681 16.0561 36.7804 15.5733C36.8926 15.0905 37.3726 14.7902 37.8554 14.9024L55.2417 18.9332C55.7245 19.0455 56.0248 19.5255 55.9125 20.0083C55.8002 20.4911 55.3175 20.7914 54.8375 20.6791Z" fill="#FFF1B8"/>
<path d="M70.2504 29.9621L36.1937 22.0634C35.7109 21.9511 35.4106 21.4711 35.5229 20.9883C35.6351 20.5055 36.1151 20.2052 36.5979 20.3175L70.6546 28.2162C71.1374 28.3285 71.4377 28.8085 71.3255 29.2913C71.2132 29.7741 70.7332 30.0744 70.2504 29.9621Z" fill="#FFF1B8"/>
<path d="M68.9956 35.3791L34.939 27.4804C34.4562 27.3681 34.1559 26.8881 34.2682 26.4053C34.3804 25.9225 34.8604 25.6222 35.3432 25.7345L69.3998 33.6332C69.8826 33.7455 70.183 34.2255 70.0707 34.7083C69.9584 35.1911 69.4756 35.4914 68.9956 35.3791Z" fill="#FFF1B8"/>
<path d="M67.7381 40.7971L33.6815 32.8983C33.1987 32.7861 32.8984 32.3061 33.0107 31.8233C33.1229 31.3405 33.6029 31.0402 34.0857 31.1524L68.1423 39.0512C68.6251 39.1634 68.9255 39.6434 68.8132 40.1262C68.7009 40.609 68.2209 40.9093 67.7381 40.7971Z" fill="#FFF1B8"/>
<path d="M66.4835 46.2141L32.4268 38.3153C31.944 38.2031 31.6437 37.7231 31.756 37.2403C31.8682 36.7575 32.3482 36.4571 32.831 36.5694L66.8876 44.4682C67.3704 44.5805 67.6708 45.0605 67.5585 45.5432C67.4462 46.026 66.9634 46.3264 66.4835 46.2141Z" fill="#FFF1B8"/>
<path d="M65.2259 51.6311L31.1693 43.7323C30.6865 43.6201 30.3862 43.1401 30.4984 42.6573C30.6107 42.1745 31.0907 41.8741 31.5735 41.9864L65.6302 49.8852C66.1129 49.9974 66.4133 50.4774 66.301 50.9602C66.1887 51.443 65.7087 51.7434 65.2259 51.6311Z" fill="#FFF1B8"/>
<path d="M63.9712 57.0491L29.9146 49.1503C29.4318 49.038 29.1315 48.558 29.2437 48.0753C29.356 47.5925 29.836 47.2921 30.3188 47.4044L64.3754 55.3031C64.8582 55.4154 65.1586 55.8954 65.0463 56.3782C64.934 56.861 64.4512 57.1613 63.9712 57.0491Z" fill="#FFF1B8"/>
<path d="M62.7137 62.466L28.6571 54.5673C28.1743 54.455 27.874 53.975 27.9862 53.4922C28.0985 53.0094 28.5785 52.7091 29.0613 52.8214L63.1179 60.7201C63.6007 60.8324 63.9011 61.3124 63.7888 61.7952C63.6765 62.278 63.1965 62.5783 62.7137 62.466Z" fill="#FFF1B8"/>
<path d="M61.4562 67.884L27.3996 59.9853C26.9168 59.873 26.6165 59.393 26.7287 58.9102C26.841 58.4274 27.321 58.1271 27.8038 58.2393L61.8604 66.1381C62.3432 66.2504 62.6436 66.7304 62.5313 67.2132C62.4218 67.696 61.939 67.9963 61.4562 67.884Z" fill="#FFF1B8"/>
<path d="M54.0123 64.7964L13.247 71.4938C11.9615 71.7043 10.746 70.8341 10.5355 69.5486L2.23819 19.0516C2.02767 17.766 2.89782 16.5506 4.1834 16.3401L44.9487 9.64273C46.2343 9.43221 47.4497 10.3024 47.6602 11.5879L55.9575 62.0849C56.1681 63.3733 55.2979 64.5859 54.0123 64.7964Z" fill="#B37FEB"/>
<path d="M26.1196 20.1692L8.50607 23.0604C8.01766 23.1418 7.55733 22.8106 7.47592 22.3221C7.39452 21.8337 7.72574 21.3734 8.21415 21.292L25.8249 18.398C26.3133 18.3166 26.7736 18.6479 26.855 19.1363C26.9393 19.6275 26.608 20.0878 26.1196 20.1692Z" fill="#F0F5FF"/>
<path d="M43.9073 22.8803L9.40994 28.5475C8.92154 28.6289 8.4612 28.2977 8.37979 27.8093C8.29839 27.3209 8.62961 26.8605 9.11802 26.7791L43.6182 21.1119C44.1066 21.0305 44.567 21.3617 44.6484 21.8501C44.727 22.3385 44.3957 22.8017 43.9073 22.8803Z" fill="#F0F5FF"/>
<path d="M44.8083 28.3676L10.3109 34.0348C9.82253 34.1162 9.3622 33.785 9.28079 33.2966C9.19939 32.8082 9.53061 32.3478 10.019 32.2664L44.5191 26.5992C45.0076 26.5178 45.4679 26.849 45.5493 27.3374C45.6279 27.8287 45.2967 28.289 44.8083 28.3676Z" fill="#F0F5FF"/>
<path d="M45.7121 33.855L11.212 39.525C10.7236 39.6064 10.2633 39.2752 10.1819 38.7868C10.1005 38.2984 10.4317 37.8381 10.9201 37.7567L45.4202 32.0894C45.9086 32.008 46.369 32.3393 46.4504 32.8277C46.529 33.3161 46.2006 33.7764 45.7121 33.855Z" fill="#F0F5FF"/>
<path d="M46.6132 39.3432L12.113 45.0104C11.6246 45.0918 11.1643 44.7606 11.0829 44.2722C11.0015 43.7838 11.3327 43.3234 11.8211 43.242L46.3212 37.5748C46.8097 37.4934 47.27 37.8246 47.3514 38.313C47.4328 38.8042 47.1016 39.2646 46.6132 39.3432Z" fill="#F0F5FF"/>
<path d="M47.5142 44.8305L13.0141 50.4977C12.5257 50.5791 12.0653 50.2479 11.9839 49.7595C11.9025 49.2711 12.2337 48.8107 12.7221 48.7293L47.2223 43.0621C47.7107 42.9807 48.171 43.3119 48.2524 43.8003C48.3338 44.2916 48.0026 44.7519 47.5142 44.8305Z" fill="#F0F5FF"/>
<path d="M48.4152 50.3178L13.9151 55.985C13.4267 56.0664 12.9663 55.7352 12.8849 55.2468C12.8035 54.7584 13.1347 54.2981 13.6231 54.2167L48.1233 48.5494C48.6117 48.468 49.072 48.7992 49.1534 49.2876C49.2348 49.7789 48.9036 50.2392 48.4152 50.3178Z" fill="#F0F5FF"/>
<path d="M49.3163 55.809L14.8161 61.4762C14.3277 61.5576 13.8674 61.2264 13.786 60.738C13.7046 60.2496 14.0358 59.7892 14.5242 59.7078L49.0244 54.0406C49.5128 53.9592 49.9731 54.2904 50.0545 54.7789C50.1359 55.2673 49.8047 55.7276 49.3163 55.809Z" fill="#F0F5FF"/>
<path d="M50.2201 61.2963L15.7199 66.9635C15.2315 67.0449 14.7712 66.7137 14.6898 66.2253C14.6084 65.7369 14.9396 65.2765 15.428 65.1951L49.9282 59.5279C50.4166 59.4465 50.8769 59.7777 50.9583 60.2662C51.0369 60.7546 50.7085 61.2149 50.2201 61.2963Z" fill="#F0F5FF"/>
<path d="M22.058 65.9784C20.7219 65.9784 19.6019 64.9286 19.5289 63.5785L16.7669 12.4781C16.7304 11.8016 16.9606 11.1532 17.4125 10.6479C17.8644 10.1427 18.4875 9.84514 19.1612 9.80865L60.4121 7.57993C61.0886 7.54344 61.737 7.77361 62.2422 8.22553C62.7475 8.67745 63.045 9.30059 63.0815 9.97426L65.8435 61.0747C65.9193 62.4697 64.8442 63.6683 63.4492 63.7441L22.1983 65.9728C22.1506 65.9756 22.1029 65.9784 22.058 65.9784ZM60.5524 7.92799C60.5131 7.92799 60.471 7.92799 60.4317 7.9308L19.1809 10.1595C18.597 10.1904 18.0637 10.4486 17.6735 10.8809C17.2834 11.316 17.0869 11.8746 17.1178 12.4584L19.8798 63.5588C19.9443 64.7602 20.9745 65.6865 22.1787 65.6219L63.4296 63.3932C64.6309 63.3287 65.5572 62.2985 65.4927 61.0943L62.7306 9.9939C62.6997 9.41006 62.4415 8.87674 62.0092 8.48658C61.6022 8.12448 61.0886 7.92799 60.5524 7.92799Z" fill="#434343"/>
<path d="M58.2675 9.51314L26.027 5.72095C24.6853 5.56377 23.4698 6.52374 23.3099 7.86546L17.3423 58.5869C17.1851 59.9287 18.1451 61.1441 19.4868 61.3041L60.3419 66.1124C61.6836 66.2695 62.899 65.3096 63.059 63.9678L68.0132 21.8637L58.2675 9.51314Z" fill="white"/>
<path d="M57.2515 18.13C57.0943 19.4717 58.0543 20.6871 59.396 20.8471L68.0132 21.8604L58.2676 9.5127L57.2515 18.13Z" fill="white"/>
<path opacity="0.2" d="M59.0142 20.7686L67.8364 23.3481L68.0132 21.8605L59.0142 20.7686Z" fill="#096DD9"/>
<path opacity="0.2" d="M57.1813 18.7397L56.676 9.3252L58.2676 9.51326L57.1813 18.7397Z" fill="#096DD9"/>
<path d="M45.6756 15.4355L27.9497 13.35C27.4585 13.291 27.1077 12.8475 27.1638 12.3563C27.2227 11.8651 27.6662 11.5142 28.1575 11.5704L45.8834 13.6559C46.3746 13.7149 46.7254 14.1584 46.6693 14.6496C46.6132 15.1408 46.1669 15.4945 45.6756 15.4355Z" fill="#41A036"/>
<path d="M45.0608 20.6679L27.335 18.5824C26.8438 18.5234 26.4929 18.0799 26.549 17.5887C26.608 17.0975 27.0515 16.7466 27.5427 16.8028L45.2685 18.8883C45.7597 18.9473 46.1106 19.3908 46.0545 19.882C45.9983 20.3732 45.552 20.7269 45.0608 20.6679Z" fill="#41A036"/>
<path d="M58.7559 54.0844L23.6438 49.9525C23.1526 49.8936 22.8017 49.4501 22.8579 48.9588C22.9168 48.4676 23.3603 48.1168 23.8515 48.1729L58.9636 52.3047C59.4548 52.3637 59.8057 52.8072 59.7496 53.2984C59.6906 53.7924 59.2471 54.1433 58.7559 54.0844Z" fill="#F0F5FF"/>
<path d="M48.4432 57.9528L23.0516 54.9662C22.5604 54.9072 22.2095 54.4637 22.2657 53.9725C22.3246 53.4813 22.7681 53.1304 23.2593 53.1866L48.6509 56.1732C49.1422 56.2321 49.493 56.6756 49.4369 57.1668C49.3807 57.6581 48.9344 58.0117 48.4432 57.9528Z" fill="#F0F5FF"/>
<path d="M59.1405 48.1508L24.8256 44.1116C24.1632 44.033 23.6916 43.4351 23.7674 42.7727L25.8894 24.7381C25.968 24.0756 26.5659 23.6041 27.2284 23.6799L61.5432 27.7191C62.2057 27.7977 62.6772 28.3955 62.6014 29.058L60.4794 47.0926C60.4036 47.755 59.8029 48.2266 59.1405 48.1508Z" fill="#F0F5FF"/>
<path opacity="0.2" d="M41.8189 52.6623C46.6401 52.6623 50.5485 48.7539 50.5485 43.9327C50.5485 39.1115 46.6401 35.2031 41.8189 35.2031C36.9976 35.2031 33.0892 39.1115 33.0892 43.9327C33.0892 48.7539 36.9976 52.6623 41.8189 52.6623Z" fill="#096DD9"/>
<path d="M41.3053 51.1321C46.1265 51.1321 50.0349 47.2237 50.0349 42.4025C50.0349 37.5812 46.1265 33.6729 41.3053 33.6729C36.484 33.6729 32.5756 37.5812 32.5756 42.4025C32.5756 47.2237 36.484 51.1321 41.3053 51.1321Z" fill="#FAAD14"/>
<path d="M44.4013 40.7717L40.9516 37.496C40.7607 37.3136 40.4912 37.2378 40.2302 37.2911C39.972 37.3445 39.7558 37.5241 39.652 37.7683L37.8134 42.1584C37.6422 42.5682 37.8359 43.0397 38.2457 43.2138C38.6555 43.385 39.1271 43.1913 39.3011 42.7815L40.1404 40.7773L41.4259 46.8908C41.5186 47.3259 41.9452 47.6038 42.3803 47.514C42.8154 47.4242 43.0933 46.9947 43.0034 46.5596L41.7179 40.4461L43.2926 41.9422C43.4918 42.1331 43.7641 42.1977 44.0139 42.1471C44.1683 42.1134 44.3143 42.0377 44.4322 41.9142C44.7353 41.5886 44.7241 41.0777 44.4013 40.7717Z" fill="white"/>
<path d="M34.7177 51.9687C34.8966 51.2113 34.4276 50.4524 33.6702 50.2735C32.9128 50.0947 32.1539 50.5637 31.9751 51.321C31.7962 52.0784 32.2652 52.8374 33.0226 53.0162C33.7799 53.195 34.5389 52.726 34.7177 51.9687Z" fill="#FAAD14"/>
<path d="M35.4219 57.4311C35.9862 57.4311 36.4436 56.9737 36.4436 56.4094C36.4436 55.8451 35.9862 55.3877 35.4219 55.3877C34.8576 55.3877 34.4001 55.8451 34.4001 56.4094C34.4001 56.9737 34.8576 57.4311 35.4219 57.4311Z" fill="#FAAD14"/>
<path d="M41.3053 55.8088C41.9207 55.8088 42.4196 55.3099 42.4196 54.6945C42.4196 54.079 41.9207 53.5801 41.3053 53.5801C40.6898 53.5801 40.1909 54.079 40.1909 54.6945C40.1909 55.3099 40.6898 55.8088 41.3053 55.8088Z" fill="#FAAD14"/>
<path d="M39.3572 59.1237C39.7045 59.1237 39.986 58.8422 39.986 58.495C39.986 58.1477 39.7045 57.8662 39.3572 57.8662C39.01 57.8662 38.7285 58.1477 38.7285 58.495C38.7285 58.8422 39.01 59.1237 39.3572 59.1237Z" fill="#FAAD14"/>
<path d="M32.7355 60.0095C33.0293 59.7157 33.0293 59.2394 32.7355 58.9456C32.4418 58.6518 31.9655 58.6518 31.6717 58.9456C31.3779 59.2394 31.3779 59.7157 31.6717 60.0095C31.9655 60.3033 32.4418 60.3033 32.7355 60.0095Z" fill="#FAAD14"/>
</svg>
