<svg width="56" height="56" viewBox="0 0 56 56" fill="none" xmlns="http://www.w3.org/2000/svg">
    <path d="m38.631 9.719 7.303 7.612V46.28h-27.28v.094h27.373V17.427L38.631 9.72z" fill="#909090"/>
    <path d="M38.54 9.625H18.56v36.656h27.374V17.333l-7.395-7.708" fill="#F4F4F4"/>
    <path d="M18.36 11.594H9.973v8.96h26.381v-8.96H18.36z" fill="#7A7B7C"/>
    <path d="M36.495 20.402H10.144v-8.967h26.35v8.967z" fill="#DD2025"/>
    <path d="M18.88 12.951h-1.715v6.3h1.35v-2.124l.297.017c.29-.005.576-.057.85-.154.239-.082.459-.212.646-.382.191-.162.342-.366.44-.596.132-.382.179-.789.138-1.192a2.937 2.937 0 0 0-.15-.845 1.541 1.541 0 0 0-.901-.853 2.825 2.825 0 0 0-.956-.17h.002zm-.249 3.011h-.117V14.02h.254a.748.748 0 0 1 .602.238c.158.21.242.468.24.732 0 .323 0 .615-.291.822-.21.115-.449.167-.688.15zm4.818-3.027c-.145 0-.287.01-.387.014l-.312.008h-1.024v6.3h1.205c.46.012.919-.066 1.35-.23.346-.137.652-.359.892-.644.232-.288.4-.624.49-.983.102-.407.153-.826.149-1.246a5.798 5.798 0 0 0-.114-1.48 2.332 2.332 0 0 0-.525-.961 2.139 2.139 0 0 0-.703-.525 3.166 3.166 0 0 0-.72-.234 1.686 1.686 0 0 0-.3-.022v.002zm-.237 5.164h-.131v-4.021h.017c.27-.031.544.017.787.14.178.142.323.321.425.525.11.214.174.45.187.69.012.29 0 .526 0 .721.005.225-.01.45-.044.673-.04.229-.115.45-.221.657-.121.191-.284.353-.477.472a.883.883 0 0 1-.546.14l.003.003zm6.665-5.142h-3.19v6.3h1.35v-2.5h1.706v-1.17h-1.706v-1.46h1.837v-1.17" fill="#464648"/>
    <path d="M35.587 33.585s4.184-.758 4.184.67c0 1.43-2.592.849-4.184-.67zm-3.093.11a9.895 9.895 0 0 0-1.934.641l.525-1.181c.525-1.181 1.07-2.792 1.07-2.792a18.653 18.653 0 0 0 2.176 2.956c-.619.092-1.232.218-1.837.378v-.003zm-1.657-8.532c0-1.246.403-1.586.717-1.586.314 0 .667.151.678 1.233a14.157 14.157 0 0 1-.678 3.195 5.81 5.81 0 0 1-.718-2.838l.001-.004zm-6.102 13.802c-1.283-.768 2.692-3.132 3.413-3.208-.004.002-2.069 4.011-3.413 3.208zm16.258-4.54c-.013-.131-.13-1.584-2.717-1.522a18.677 18.677 0 0 0-3.22.227 16.459 16.459 0 0 1-2.64-3.485c.455-1.313.73-2.682.818-4.069-.038-1.575-.415-2.478-1.622-2.465-1.208.014-1.384 1.07-1.225 2.642a12.22 12.22 0 0 0 .873 3.07s-.558 1.736-1.296 3.463c-.737 1.727-1.241 2.633-1.241 2.633a12.63 12.63 0 0 0-3.577 1.837c-1.081 1.007-1.521 1.78-.951 2.553.49.667 2.209.818 3.744-1.194a29.61 29.61 0 0 0 2.232-3.271s2.341-.642 3.07-.818c.728-.176 1.608-.315 1.608-.315s2.139 2.151 4.2 2.075c2.063-.076 1.963-1.232 1.95-1.358" fill="#DD2025"/>
    <path d="M38.44 9.727v7.708h7.393l-7.394-7.708z" fill="#909090"/>
    <path d="M38.541 9.625v7.708h7.393l-7.393-7.708z" fill="#F4F4F4"/>
    <path d="M18.78 12.85h-1.716v6.3h1.355v-2.124l.299.017a2.68 2.68 0 0 0 .85-.153c.238-.082.458-.212.646-.382.19-.162.339-.366.436-.596.132-.383.179-.79.138-1.192a2.933 2.933 0 0 0-.15-.845 1.54 1.54 0 0 0-.902-.853 2.821 2.821 0 0 0-.958-.172h.002zm-.25 3.01h-.117v-1.942h.255a.749.749 0 0 1 .602.238c.158.211.243.468.24.732 0 .323 0 .616-.29.822-.21.115-.45.167-.688.15h-.002zm4.819-3.027c-.146 0-.288.01-.388.014l-.308.008h-1.024v6.3h1.205c.46.013.919-.065 1.35-.23.346-.137.652-.358.892-.644.232-.288.4-.624.49-.983.102-.407.153-.826.149-1.245a5.793 5.793 0 0 0-.114-1.48 2.332 2.332 0 0 0-.525-.962 2.139 2.139 0 0 0-.703-.525 3.166 3.166 0 0 0-.72-.233 1.676 1.676 0 0 0-.3-.023l-.005.003zm-.234 5.165h-.131v-4.022H23c.27-.031.544.018.787.14.178.143.323.322.425.526.11.214.174.45.187.69.012.289 0 .525 0 .72.005.226-.01.451-.043.674-.041.228-.116.45-.222.656-.121.192-.284.353-.477.473a.883.883 0 0 1-.546.139l.003.004zm6.66-5.143h-3.189v6.3h1.35v-2.499h1.706v-1.17h-1.706v-1.46h1.837v-1.17" fill="#fff"/>
</svg>
